<svg width="21" height="20" fill="none" xmlns="http://www.w3.org/2000/svg"><path fill-rule="evenodd" clip-rule="evenodd" d="M6.75 3.125c0-.345.28-.625.625-.625h10c.345 0 .625.28.625.625v10c0 .345-.28.625-.625.625h-3.75a.625.625 0 1 1 0-1.25h3.125V3.75H8v3.125a.625.625 0 1 1-1.25 0v-3.75Z" fill="#fff"/><path fill-rule="evenodd" clip-rule="evenodd" d="M3 6.875c0-.345.28-.625.625-.625h10c.345 0 .625.28.625.625v10c0 .345-.28.625-.625.625h-10A.625.625 0 0 1 3 16.875v-10Zm1.25.625v8.75H13V7.5H4.25Z" fill="#fff"/></svg>