<svg width="20" height="20" fill="none" xmlns="http://www.w3.org/2000/svg"><path fill-rule="evenodd" clip-rule="evenodd" d="M2.84 6.746C4.33 5.256 6.666 3.75 10 3.75s5.67 1.506 7.16 2.996a11.825 11.825 0 0 1 1.63 2.042 9.96 9.96 0 0 1 .494.878l.026.056.007.016.003.005v.002c.001 0 .001.001-.57.255l.57.254v.003l-.003.005-.007.016a6.613 6.613 0 0 1-.126.253 9.958 9.958 0 0 1-.393.68c-.351.558-.887 1.3-1.63 2.043-1.49 1.49-3.828 2.996-7.161 2.996-3.333 0-5.67-1.506-7.16-2.996a11.824 11.824 0 0 1-1.63-2.042 9.966 9.966 0 0 1-.494-.878 3.55 3.55 0 0 1-.026-.056l-.007-.016-.003-.005v-.002c-.001 0-.001-.001.57-.255a59.108 59.108 0 0 1-.57-.254v-.003l.003-.005.007-.016a3.949 3.949 0 0 1 .126-.254c.087-.167.218-.4.393-.68.351-.557.887-1.3 1.63-2.042ZM1.25 10l-.571-.254a.625.625 0 0 0 0 .508L1.25 10Zm.699 0c.073.138.179.325.318.546a10.62 10.62 0 0 0 1.456 1.825C5.046 13.693 7.083 15 10 15c2.917 0 4.954-1.307 6.277-2.63a10.574 10.574 0 0 0 1.456-1.824c.14-.221.245-.408.318-.546a8.849 8.849 0 0 0-.318-.546 10.572 10.572 0 0 0-1.456-1.825C14.954 6.307 12.917 5 10 5 7.083 5 5.046 6.307 3.723 7.63a10.574 10.574 0 0 0-1.456 1.824c-.14.221-.245.408-.318.546Zm16.801 0 .571.254a.624.624 0 0 0 0-.508L18.75 10Z" fill="#A259FF"/><path fill-rule="evenodd" clip-rule="evenodd" d="M10 7.5a2.5 2.5 0 1 0 0 5 2.5 2.5 0 0 0 0-5ZM6.25 10a3.75 3.75 0 1 1 7.5 0 3.75 3.75 0 0 1-7.5 0Z" fill="#A259FF"/></svg>